<svg viewBox="0 0 40 32" fill="none" xmlns="http://www.w3.org/2000/svg"><path d="M.62 22v-.82l4.66-4.56c.43-.41.75-.77.96-1.08a3.1 3.1 0 0 0 .54-1.68 1.9 1.9 0 0 0-.67-1.54c-.44-.37-1.09-.56-1.95-.56-.66 0-1.25.1-1.76.3-.5.2-.93.52-1.3.95l-.81-.7c.44-.52 1-.91 1.68-1.19a6.03 6.03 0 0 1 4.25-.05 2.77 2.77 0 0 1 1.75 2.66 3.68 3.68 0 0 1-.7 2.19c-.26.38-.64.82-1.14 1.31l-4.27 4.2-.32-.45h6.94v1.02h-7.86Zm12.8-11.3c.99 0 1.82.23 2.5.68.69.43 1.2 1.07 1.56 1.9.35.83.53 1.84.53 3.02a7 7 0 0 1-.66 3.19 4.43 4.43 0 0 1-1.8 1.95 5.3 5.3 0 0 1-2.66.66c-.5 0-.99-.05-1.44-.15-.45-.1-.86-.25-1.22-.46l.46-.93c.3.2.62.33 1 .42.38.07.77.1 1.18.1 1.2 0 2.17-.38 2.88-1.14.73-.77 1.09-1.92 1.09-3.44a9.63 9.63 0 0 0-.23-1.9l.4.3c-.1.55-.33 1.03-.68 1.42-.35.38-.77.68-1.28.88-.5.2-1.07.3-1.68.3-.74 0-1.4-.13-1.97-.41a3.23 3.23 0 0 1-1.33-1.17c-.32-.5-.48-1.1-.48-1.78 0-.7.17-1.3.5-1.82.33-.51.78-.9 1.36-1.18a4.4 4.4 0 0 1 1.96-.44Zm.04.98c-.53 0-1 .1-1.42.3-.4.2-.73.47-.96.84-.24.36-.35.8-.35 1.3 0 .73.25 1.31.75 1.75.51.44 1.2.66 2.06.66.58 0 1.08-.1 1.5-.32a2.4 2.4 0 0 0 1.38-2.13c0-.42-.11-.8-.33-1.17a2.43 2.43 0 0 0-1-.88 3.42 3.42 0 0 0-1.63-.35Zm9.75 10.42c-.8 0-1.56-.13-2.29-.39a4.58 4.58 0 0 1-1.72-1.05l.56-.92a4 4 0 0 0 1.44.93c.61.25 1.28.37 2 .37.95 0 1.67-.2 2.16-.62.5-.43.75-.99.75-1.67 0-.48-.12-.89-.35-1.23a2.23 2.23 0 0 0-1.16-.82 7.03 7.03 0 0 0-2.24-.28h-2.38l.58-5.62h6.12v1.02h-5.66l.6-.56-.5 4.7-.6-.57h2.1c1.13 0 2.04.14 2.72.42a2.9 2.9 0 0 1 1.94 2.9 3.12 3.12 0 0 1-1.8 2.94c-.6.3-1.35.45-2.27.45Zm6.86-.1v-11.2h4.19c1.42 0 2.53.32 3.34.96a3.28 3.28 0 0 1 1.23 2.75 3.3 3.3 0 0 1-1.23 2.77c-.8.64-1.92.96-3.34.96h-3.54l.53-.56v4.32h-1.18Zm1.18-4.22-.53-.55h3.55c1.1 0 1.92-.23 2.5-.7.59-.47.88-1.14.88-2 0-.87-.3-1.53-.88-2-.58-.47-1.4-.7-2.5-.7h-3.55l.53-.57v6.52Zm-2.86 2.14v-.7h6.46v.7h-6.46Z" fill="#7859CF"/><path d="M0 17.04h39.73v.8h-39.73v-.8Z" fill="#7859CF"/></svg>