<svg viewBox="0 0 50 16" fill="none" xmlns="http://www.w3.org/2000/svg"><path d="M.7 15v-1.74l5.56-5.28a7.6 7.6 0 0 0 1.04-1.16 3.13 3.13 0 0 0 .56-1.74c0-.64-.22-1.13-.66-1.48-.44-.36-1.09-.54-1.94-.54-.68 0-1.3.12-1.86.36-.55.24-1.02.6-1.42 1.1l-1.82-1.4a5.33 5.33 0 0 1 2.2-1.7 7.62 7.62 0 0 1 3.12-.62c1.01 0 1.9.17 2.64.5a3.68 3.68 0 0 1 2.36 3.52 4.8 4.8 0 0 1-.86 2.76c-.33.5-.82 1.05-1.46 1.66l-4.78 4.54-.54-.98h8.18v2.2h-10.32Zm11.64 0v-1.74l5.56-5.28a7.6 7.6 0 0 0 1.04-1.16 3.13 3.13 0 0 0 .56-1.74c0-.64-.22-1.13-.66-1.48-.44-.36-1.09-.54-1.94-.54-.68 0-1.3.12-1.86.36-.55.24-1.02.6-1.42 1.1l-1.82-1.4a5.33 5.33 0 0 1 2.2-1.7 7.62 7.62 0 0 1 3.12-.62c1.01 0 1.9.17 2.64.5a3.68 3.68 0 0 1 2.36 3.52 4.8 4.8 0 0 1-.86 2.76c-.33.5-.82 1.05-1.46 1.66l-4.78 4.54-.54-.98h8.18v2.2h-10.32Zm16.46.2c-.99 0-1.95-.14-2.9-.42-.93-.3-1.72-.7-2.36-1.2l1.1-2.02c.5.41 1.12.75 1.84 1 .73.25 1.5.38 2.28.38.92 0 1.64-.2 2.16-.58.53-.39.8-.9.8-1.56 0-.44-.11-.83-.34-1.16-.21-.33-.6-.59-1.16-.76a7.77 7.77 0 0 0-2.26-.26h-3.38l.72-7.62h8.22v2.18h-7.26l1.36-1.24-.54 5.7-1.36-1.22h2.82c1.39 0 2.5.19 3.34.56a3.82 3.82 0 0 1 2.46 3.72c0 .81-.2 1.56-.6 2.24a4.28 4.28 0 0 1-1.84 1.64c-.81.41-1.85.62-3.1.62Zm8.76-.2v-14h5.76c1.84 0 3.29.4 4.34 1.2 1.07.79 1.6 1.95 1.6 3.5a4.1 4.1 0 0 1-1.6 3.5c-1.05.79-2.5 1.18-4.34 1.18h-4.32l1.16-1.2v5.82h-2.6Zm2.6-5.54-1.16-1.18h4.3c1.07 0 1.89-.22 2.46-.66.59-.45.88-1.09.88-1.9 0-.81-.3-1.43-.88-1.86a3.97 3.97 0 0 0-2.46-.66h-4.3l1.16-1.28v7.54Zm-4.6 3.46v-1.4h9v1.4h-9Z" fill="#333"/></svg>